<svg width="10" height="19" viewBox="0 0 10 19" fill="none" xmlns="http://www.w3.org/2000/svg">
<path fill-rule="evenodd" clip-rule="evenodd" d="M0.656687 0.0239365C0.533269 0.0523713 0.270052 0.24872 0.174643 0.383555C-0.0144378 0.650707 -0.0530837 0.992669 0.0738801 1.27574C0.129651 1.40012 0.987161 2.27734 3.9642 5.25555L7.783 9.07581L3.9642 12.8961C0.987161 15.8743 0.129651 16.7515 0.0738801 16.8759C-0.0695702 17.1958 0.0145644 17.6267 0.270442 17.8826C0.429244 18.0413 0.696432 18.1515 0.922598 18.1515C1.34809 18.1515 1.10941 18.3698 5.66302 13.8162C10.2166 9.26262 9.99833 9.5013 9.99833 9.07581C9.99833 8.65031 10.2166 8.88899 5.66302 4.33539C1.1025 -0.225134 1.34416 -0.00432103 0.922598 0.00383358C0.815347 0.00588996 0.695687 0.014931 0.656687 0.0239365Z" fill="#017DF8"/>
</svg>
