<svg width="30" height="37" viewBox="0 0 30 37" fill="none" xmlns="http://www.w3.org/2000/svg">
<path fill-rule="evenodd" clip-rule="evenodd" d="M11.6664 0.122765C10.5645 0.480033 9.70762 1.33754 9.37437 2.41627C9.26379 2.77447 9.22946 3.08803 9.22946 3.74097V4.5963L5.67531 4.61693L2.12116 4.63756L1.64755 4.87084C1.06934 5.15554 0.498199 5.73599 0.227128 6.31441C0.0357622 6.72275 0.0323 6.75665 0.0100834 8.42506C-0.0122774 10.1009 -0.0105463 10.1237 0.156006 10.3709C0.248767 10.5085 0.434146 10.6949 0.568023 10.7851L0.811395 10.9491H15H29.1886L29.432 10.7851C29.5659 10.6949 29.7512 10.5085 29.844 10.3709C30.0105 10.1237 30.0123 10.101 29.9899 8.42318L29.9673 6.72563L29.7341 6.25223C29.4494 5.67424 28.8687 5.10303 28.2905 4.83203L27.8755 4.63756L24.3312 4.61693L20.7868 4.59638L20.7543 3.60709C20.7284 2.81595 20.6903 2.53673 20.5642 2.21257C20.219 1.32506 19.4485 0.550362 18.5507 0.188116C18.1446 0.0243047 18.0872 0.021203 15.1082 0.00533399C12.3284 -0.00959728 12.0447 0.000140504 11.6664 0.122765ZM17.8722 2.47361C18.2969 2.72953 18.4203 3.02542 18.4513 3.86186L18.4787 4.6015H15.0082H11.5377V3.92757C11.5377 3.07988 11.6992 2.71576 12.1903 2.45608L12.5107 2.28665L15.0717 2.308C17.4839 2.32812 17.6467 2.33771 17.8722 2.47361ZM1.90549 13.3784C1.80155 13.4824 1.79087 13.6024 1.8299 14.226C1.85485 14.6255 2.06807 19.0747 2.30366 24.1131C2.53917 29.1515 2.75001 33.4732 2.77208 33.7169C2.90653 35.2025 3.87346 36.3683 5.32944 36.8002C5.68087 36.9046 6.67491 36.9165 14.9951 36.9157C22.5082 36.915 24.3374 36.8965 24.6296 36.8184C26.0797 36.4304 27.0878 35.2157 27.2252 33.6906C27.256 33.3487 28.2001 13.8067 28.2001 13.5108C28.2001 13.4961 28.1491 13.433 28.0868 13.3706C27.9846 13.2685 26.6978 13.2573 15 13.2573C2.95046 13.2573 2.01794 13.266 1.90549 13.3784ZM9.84229 15.2047C10.3857 15.5405 10.3475 14.9031 10.3475 23.6443V31.4706L10.1902 31.723C9.71851 32.4799 8.61179 32.425 8.22474 31.6254C8.0765 31.3192 8.07535 31.2571 8.07535 23.6368V15.9568L8.23765 15.6349C8.54478 15.0259 9.24792 14.8374 9.84229 15.2047ZM15.6128 15.2047C16.1562 15.5405 16.118 14.9031 16.118 23.6443V31.4706L15.9607 31.723C15.4891 32.4799 14.3823 32.425 13.9953 31.6254C13.847 31.3192 13.8459 31.2571 13.8459 23.6368V15.9568L14.0082 15.6349C14.3153 15.0259 15.0185 14.8374 15.6128 15.2047ZM21.3834 15.2047C21.9267 15.5405 21.8886 14.9031 21.8886 23.6443V31.4706L21.7313 31.723C21.2596 32.4799 20.1529 32.425 19.7658 31.6254C19.6176 31.3192 19.6164 31.2571 19.6164 23.6368V15.9568L19.7787 15.6349C20.0859 15.0259 20.789 14.8374 21.3834 15.2047Z" fill="#AA0000"/>
</svg>
