<svg width="30" height="30" viewBox="0 0 30 30" fill="none" xmlns="http://www.w3.org/2000/svg">
<path fill-rule="evenodd" clip-rule="evenodd" d="M14.238 0.107772C14.0607 0.165096 13.8099 0.266498 13.6806 0.333083C13.3562 0.50019 12.879 0.984045 12.6587 1.36896C12.3079 1.98212 12.3059 2.01471 12.3048 7.22586L12.3038 11.9634L12.1324 12.1347L11.9611 12.3061L7.22357 12.3071C2.01241 12.3082 1.97982 12.3102 1.36666 12.661C0.0829692 13.3955 -0.364663 14.9448 0.317541 16.2921C0.494085 16.6407 0.967506 17.1152 1.36666 17.3436C1.97982 17.6944 2.01241 17.6964 7.22357 17.6975L11.9611 17.6985L12.1324 17.8698L12.3038 18.0412L12.3048 22.7787C12.3059 27.9899 12.3079 28.0225 12.6587 28.6356C13.536 30.169 15.615 30.4752 16.8557 29.2539C17.0217 29.0905 17.2402 28.8123 17.3413 28.6356C17.6921 28.0225 17.6941 27.9899 17.6952 22.7787L17.6962 18.0412L17.8676 17.8698L18.0389 17.6985L22.7764 17.6975C27.9876 17.6964 28.0202 17.6944 28.6333 17.3436C29.917 16.6091 30.3647 15.0598 29.6825 13.7124C29.5059 13.3639 29.0325 12.8894 28.6333 12.661C28.0202 12.3102 27.9876 12.3082 22.7764 12.3071L18.0389 12.3061L17.8676 12.1347L17.6962 11.9634L17.6952 7.22586C17.6941 2.01471 17.6921 1.98212 17.3413 1.36896C17.1129 0.969802 16.6384 0.49638 16.2898 0.319836C15.6371 -0.0106855 14.8545 -0.0915723 14.238 0.107772Z" fill="white"/>
</svg>
