<svg width="30" height="41" viewBox="0 0 30 41" fill="none" xmlns="http://www.w3.org/2000/svg">
<path fill-rule="evenodd" clip-rule="evenodd" d="M13.3769 0.113596C9.66932 0.742615 6.57882 3.43846 5.44282 7.03437C5.06076 8.24391 5.00725 8.86081 5.00694 12.0645L5.00662 15.0175H4.12345C3.5811 15.0175 3.06207 15.0639 2.77834 15.1379C1.52108 15.4653 0.447895 16.5385 0.120439 17.7958C0.0154585 18.1989 0.000125982 19.4389 0.000125982 27.5338C0.000125982 37.741 -0.0209167 37.2764 0.480907 38.1534C0.787867 38.6899 1.36111 39.2628 1.89892 39.5705C2.79054 40.0806 2.0384 40.0546 15.2218 40.0317L27.1838 40.0109L27.6291 39.831C28.5766 39.4481 29.4372 38.5885 29.8186 37.644L30 37.1948V27.5338V17.8728L29.8186 17.4236C29.4353 16.4744 28.564 15.6069 27.6291 15.2434C27.2709 15.1041 26.9734 15.0634 26.1082 15.0351L25.0326 14.9998L25.0323 12.0557C25.032 8.86151 24.9782 8.24321 24.5964 7.03437C23.6078 3.90492 21.1257 1.42287 17.9963 0.434246C16.6664 0.0141698 14.7481 -0.118972 13.3769 0.113596ZM16.2057 3.47405C19.0305 4.02633 21.146 6.19626 21.5874 8.99411C21.6316 9.27377 21.6679 10.7435 21.6682 12.2601L21.6689 15.0175H15.0196H8.37036V12.2083C8.37036 9.24709 8.41167 8.77476 8.75712 7.78676C9.81748 4.75399 13.0827 2.86341 16.2057 3.47405ZM16.4378 22.0414C16.8002 22.2162 17.0983 22.4434 17.4276 22.7953C18.0301 23.4393 18.2435 23.9589 18.2879 24.8896C18.325 25.6664 18.2011 26.163 17.8184 26.7712C17.5898 27.1348 16.8706 27.8467 16.7322 27.8467C16.693 27.8467 16.6624 28.7673 16.6624 29.9435V32.0402L16.4572 32.452C16.3235 32.7203 16.1415 32.9368 15.9349 33.0736C15.6603 33.2553 15.5376 33.2834 15.0196 33.2834C14.5017 33.2834 14.3789 33.2553 14.1044 33.0736C13.8977 32.9368 13.7157 32.7203 13.5821 32.452L13.3769 32.0402V29.9435C13.3769 28.7673 13.3462 27.8467 13.3071 27.8467C13.1686 27.8467 12.4495 27.1348 12.2208 26.7712C11.8317 26.1528 11.7115 25.6613 11.7498 24.8464C11.7901 23.9898 12.0282 23.4127 12.5897 22.8106C13.3381 22.0081 14.0133 21.7313 15.137 21.7666C15.8288 21.7883 15.9791 21.82 16.4378 22.0414Z" fill="white"/>
</svg>
